<svg width="16" height="16" viewBox="0 0 16 16" fill="none" xmlns="http://www.w3.org/2000/svg">
<path d="M11.742 10.344C12.7103 9.02267 13.144 7.38447 12.9563 5.75713C12.7686 4.12979 11.9734 2.63332 10.7298 1.56711C9.48611 0.500899 7.88575 -0.056418 6.24883 0.00665514C4.61192 0.0697283 3.05918 0.74854 1.90127 1.90729C0.743349 3.06603 0.0656481 4.61925 0.00374626 6.25621C-0.0581556 7.89317 0.500307 9.49314 1.56741 10.736C2.6345 11.9789 4.13154 12.773 5.75902 12.9596C7.38649 13.1461 9.02438 12.7112 10.345 11.742H10.344C10.374 11.782 10.406 11.82 10.442 11.857L14.292 15.707C14.4795 15.8946 14.7339 16.0001 14.9991 16.0002C15.2644 16.0003 15.5189 15.895 15.7065 15.7075C15.8941 15.52 15.9996 15.2656 15.9997 15.0003C15.9998 14.7351 15.8945 14.4806 15.707 14.293L11.857 10.443C11.8212 10.4068 11.7828 10.3744 11.742 10.344ZM12 6.49998C12 7.22225 11.8577 7.93745 11.5813 8.60474C11.3049 9.27203 10.8998 9.87834 10.3891 10.3891C9.87836 10.8998 9.27205 11.3049 8.60476 11.5813C7.93747 11.8577 7.22227 12 6.5 12C5.77773 12 5.06253 11.8577 4.39524 11.5813C3.72795 11.3049 3.12163 10.8998 2.61091 10.3891C2.10019 9.87834 1.69506 9.27203 1.41866 8.60474C1.14226 7.93745 0.999998 7.22225 0.999998 6.49998C0.999998 5.04129 1.57946 3.64234 2.61091 2.61089C3.64236 1.57944 5.04131 0.999978 6.5 0.999978C7.95869 0.999978 9.35763 1.57944 10.3891 2.61089C11.4205 3.64234 12 5.04129 12 6.49998Z" fill="#005354"/>
</svg>
