<svg width="17" height="16" viewBox="0 0 17 16" fill="none" xmlns="http://www.w3.org/2000/svg">
<path d="M12.8945 0.0487381C13.1294 -0.0113716 13.3745 -0.0159429 13.6114 0.0353712C13.8483 0.0866852 14.0706 0.192536 14.2615 0.344887C14.4524 0.497239 14.6069 0.692086 14.7132 0.914637C14.8195 1.13719 14.8748 1.38159 14.875 1.6293V2.95549H15.4062C15.8289 2.95549 16.2343 3.12728 16.5332 3.43307C16.8321 3.73886 17 4.1536 17 4.58605V14.3694C17 14.8019 16.8321 15.2166 16.5332 15.5224C16.2343 15.8282 15.8289 16 15.4062 16H1.59375C1.17106 16 0.765685 15.8282 0.466799 15.5224C0.167913 15.2166 1.04221e-07 14.8019 1.04221e-07 14.3694V4.58605C-0.000148177 4.1663 0.157933 3.76265 0.441339 3.45913C0.724745 3.15561 1.11164 2.97561 1.5215 2.95658L12.8945 0.0487381ZM5.90962 2.95549H13.8125V1.6293C13.8123 1.54683 13.7938 1.46549 13.7583 1.39143C13.7229 1.31737 13.6714 1.25254 13.6078 1.20184C13.5443 1.15114 13.4702 1.11591 13.3914 1.09882C13.3125 1.08172 13.2309 1.08321 13.1527 1.10317L5.90962 2.95549ZM1.59375 4.04253C1.45285 4.04253 1.31773 4.0998 1.2181 4.20173C1.11847 4.30366 1.0625 4.4419 1.0625 4.58605V14.3694C1.0625 14.5136 1.11847 14.6518 1.2181 14.7538C1.31773 14.8557 1.45285 14.913 1.59375 14.913H15.4062C15.5471 14.913 15.6823 14.8557 15.7819 14.7538C15.8815 14.6518 15.9375 14.5136 15.9375 14.3694V4.58605C15.9375 4.4419 15.8815 4.30366 15.7819 4.20173C15.6823 4.0998 15.5471 4.04253 15.4062 4.04253H1.59375Z" fill="#005354"/>
</svg>
